<mxfile host="app.diagrams.net" modified="2023-03-29T18:49:12.795Z" agent="Mozilla/5.0 (Macintosh; Intel Mac OS X 10_15_7) AppleWebKit/537.36 (KHTML, like Gecko) Chrome/111.0.0.0 Safari/537.36" etag="E3I-MnXW2VaFKhfINOp1" version="21.1.2" type="github">
  <diagram name="Page-1" id="2RfUBt3pwpagDlwvuFOj">
    <mxGraphModel dx="1060" dy="1830" grid="1" gridSize="10" guides="1" tooltips="1" connect="1" arrows="1" fold="1" page="1" pageScale="1" pageWidth="850" pageHeight="1100" math="0" shadow="0">
      <root>
        <mxCell id="0" />
        <mxCell id="1" parent="0" />
        <mxCell id="5L868VNpYR84aTYLt7mF-3" value="" style="rounded=1;whiteSpace=wrap;html=1;strokeColor=#FF00FF;strokeWidth=3;" vertex="1" parent="1">
          <mxGeometry x="170" y="90" width="570" height="360" as="geometry" />
        </mxCell>
        <mxCell id="5L868VNpYR84aTYLt7mF-20" value="" style="rounded=0;whiteSpace=wrap;html=1;" vertex="1" parent="1">
          <mxGeometry x="210" y="150" width="180" height="260" as="geometry" />
        </mxCell>
        <mxCell id="5L868VNpYR84aTYLt7mF-4" value="portfolio" style="text;html=1;strokeColor=none;fillColor=none;align=center;verticalAlign=middle;whiteSpace=wrap;rounded=0;" vertex="1" parent="1">
          <mxGeometry x="220" y="90" width="60" height="30" as="geometry" />
        </mxCell>
        <mxCell id="5L868VNpYR84aTYLt7mF-5" value="art" style="rounded=1;whiteSpace=wrap;html=1;fillColor=#f5f5f5;fontColor=#333333;strokeColor=#FF33FF;strokeWidth=3;" vertex="1" parent="1">
          <mxGeometry x="240" y="170" width="120" height="60" as="geometry" />
        </mxCell>
        <mxCell id="5L868VNpYR84aTYLt7mF-6" value="art" style="rounded=1;whiteSpace=wrap;html=1;fillColor=#f5f5f5;fontColor=#333333;strokeColor=#FF33FF;strokeWidth=3;" vertex="1" parent="1">
          <mxGeometry x="240" y="250" width="120" height="60" as="geometry" />
        </mxCell>
        <mxCell id="5L868VNpYR84aTYLt7mF-7" value="art" style="rounded=1;whiteSpace=wrap;html=1;fillColor=#f5f5f5;fontColor=#333333;strokeColor=#FF33FF;strokeWidth=3;" vertex="1" parent="1">
          <mxGeometry x="240" y="330" width="120" height="60" as="geometry" />
        </mxCell>
        <mxCell id="5L868VNpYR84aTYLt7mF-12" style="edgeStyle=orthogonalEdgeStyle;rounded=0;orthogonalLoop=1;jettySize=auto;html=1;" edge="1" parent="1" source="5L868VNpYR84aTYLt7mF-8" target="5L868VNpYR84aTYLt7mF-10">
          <mxGeometry relative="1" as="geometry" />
        </mxCell>
        <mxCell id="5L868VNpYR84aTYLt7mF-8" value="portfolio&amp;nbsp;&lt;br&gt;service" style="ellipse;whiteSpace=wrap;html=1;aspect=fixed;" vertex="1" parent="1">
          <mxGeometry x="610" y="420" width="80" height="80" as="geometry" />
        </mxCell>
        <mxCell id="5L868VNpYR84aTYLt7mF-9" value="" style="shape=cylinder3;whiteSpace=wrap;html=1;boundedLbl=1;backgroundOutline=1;size=15;" vertex="1" parent="1">
          <mxGeometry x="1140" y="420" width="60" height="80" as="geometry" />
        </mxCell>
        <mxCell id="5L868VNpYR84aTYLt7mF-13" style="edgeStyle=orthogonalEdgeStyle;rounded=0;orthogonalLoop=1;jettySize=auto;html=1;entryX=0;entryY=0.5;entryDx=0;entryDy=0;entryPerimeter=0;" edge="1" parent="1" source="5L868VNpYR84aTYLt7mF-10" target="5L868VNpYR84aTYLt7mF-9">
          <mxGeometry relative="1" as="geometry" />
        </mxCell>
        <mxCell id="5L868VNpYR84aTYLt7mF-10" value="" style="image;aspect=fixed;perimeter=ellipsePerimeter;html=1;align=center;shadow=0;dashed=0;spacingTop=3;image=img/lib/active_directory/internet_globe.svg;" vertex="1" parent="1">
          <mxGeometry x="960" y="435" width="50" height="50" as="geometry" />
        </mxCell>
        <mxCell id="5L868VNpYR84aTYLt7mF-11" value="database server" style="text;html=1;strokeColor=none;fillColor=none;align=center;verticalAlign=middle;whiteSpace=wrap;rounded=0;" vertex="1" parent="1">
          <mxGeometry x="1140" y="500" width="60" height="30" as="geometry" />
        </mxCell>
        <mxCell id="5L868VNpYR84aTYLt7mF-21" style="edgeStyle=orthogonalEdgeStyle;rounded=0;orthogonalLoop=1;jettySize=auto;html=1;" edge="1" parent="1" source="5L868VNpYR84aTYLt7mF-16" target="5L868VNpYR84aTYLt7mF-20">
          <mxGeometry relative="1" as="geometry" />
        </mxCell>
        <mxCell id="5L868VNpYR84aTYLt7mF-16" value="HTML" style="rounded=1;whiteSpace=wrap;html=1;fillColor=#d5e8d4;strokeColor=#82b366;" vertex="1" parent="1">
          <mxGeometry x="270" y="435" width="60" height="60" as="geometry" />
        </mxCell>
        <mxCell id="5L868VNpYR84aTYLt7mF-30" style="edgeStyle=orthogonalEdgeStyle;rounded=0;orthogonalLoop=1;jettySize=auto;html=1;entryX=0.75;entryY=1;entryDx=0;entryDy=0;" edge="1" parent="1" source="5L868VNpYR84aTYLt7mF-17" target="5L868VNpYR84aTYLt7mF-16">
          <mxGeometry relative="1" as="geometry">
            <Array as="points">
              <mxPoint x="540" y="560" />
              <mxPoint x="315" y="560" />
            </Array>
          </mxGeometry>
        </mxCell>
        <mxCell id="5L868VNpYR84aTYLt7mF-35" style="edgeStyle=orthogonalEdgeStyle;rounded=0;orthogonalLoop=1;jettySize=auto;html=1;" edge="1" parent="1" source="5L868VNpYR84aTYLt7mF-17" target="5L868VNpYR84aTYLt7mF-34">
          <mxGeometry relative="1" as="geometry" />
        </mxCell>
        <mxCell id="5L868VNpYR84aTYLt7mF-17" value="TS" style="rounded=1;whiteSpace=wrap;html=1;fillColor=#d5e8d4;strokeColor=#FF33FF;strokeWidth=7;" vertex="1" parent="1">
          <mxGeometry x="500" y="435" width="70" height="60" as="geometry" />
        </mxCell>
        <mxCell id="5L868VNpYR84aTYLt7mF-18" value="CSS" style="rounded=1;whiteSpace=wrap;html=1;" vertex="1" parent="1">
          <mxGeometry x="350" y="435" width="60" height="60" as="geometry" />
        </mxCell>
        <mxCell id="5L868VNpYR84aTYLt7mF-22" value="API" style="text;html=1;strokeColor=none;fillColor=none;align=center;verticalAlign=middle;whiteSpace=wrap;rounded=0;" vertex="1" parent="1">
          <mxGeometry x="950" y="400" width="60" height="30" as="geometry" />
        </mxCell>
        <mxCell id="5L868VNpYR84aTYLt7mF-23" value="data &lt;br&gt;[art-1, art-2, art-3]" style="text;html=1;strokeColor=#d6b656;fillColor=#fff2cc;align=center;verticalAlign=middle;whiteSpace=wrap;rounded=0;" vertex="1" parent="1">
          <mxGeometry x="680" y="520" width="120" height="30" as="geometry" />
        </mxCell>
        <mxCell id="5L868VNpYR84aTYLt7mF-24" value="art-3" style="text;html=1;strokeColor=#d6b656;fillColor=#fff2cc;align=center;verticalAlign=middle;whiteSpace=wrap;rounded=0;" vertex="1" parent="1">
          <mxGeometry x="370" y="345" width="60" height="30" as="geometry" />
        </mxCell>
        <mxCell id="5L868VNpYR84aTYLt7mF-25" value="art-2" style="text;html=1;strokeColor=#d6b656;fillColor=#fff2cc;align=center;verticalAlign=middle;whiteSpace=wrap;rounded=0;" vertex="1" parent="1">
          <mxGeometry x="370" y="265" width="60" height="30" as="geometry" />
        </mxCell>
        <mxCell id="5L868VNpYR84aTYLt7mF-26" value="art-1" style="text;html=1;strokeColor=#d6b656;fillColor=#fff2cc;align=center;verticalAlign=middle;whiteSpace=wrap;rounded=0;" vertex="1" parent="1">
          <mxGeometry x="370" y="185" width="60" height="30" as="geometry" />
        </mxCell>
        <mxCell id="5L868VNpYR84aTYLt7mF-27" value="&lt;div style=&quot;color: rgb(212, 212, 212); background-color: rgb(30, 30, 30); font-family: Menlo, Monaco, &amp;quot;Courier New&amp;quot;, monospace; line-height: 18px;&quot;&gt;&lt;div&gt;this.art1  = {&lt;/div&gt;&lt;div&gt;    image:&lt;span style=&quot;color: #ce9178;&quot;&gt;&quot;assets/image/art-1.png&quot;&lt;/span&gt;,&lt;/div&gt;&lt;div&gt;    title:&lt;span style=&quot;color: #ce9178;&quot;&gt;&quot;Mary and Anthony&quot;&lt;/span&gt;,&lt;/div&gt;&lt;div&gt;    price:&lt;span style=&quot;color: #569cd6;&quot;&gt;this&lt;/span&gt;.priceInput, &lt;span style=&quot;color: #6a9955;&quot;&gt;//29.99&lt;/span&gt;&lt;/div&gt;&lt;div&gt;    curreny:&lt;span style=&quot;color: #ce9178;&quot;&gt;&quot;USD&quot;&lt;/span&gt;&lt;/div&gt;&lt;div&gt;   };&lt;/div&gt;&lt;/div&gt;" style="text;html=1;strokeColor=none;fillColor=none;align=left;verticalAlign=middle;whiteSpace=wrap;rounded=0;" vertex="1" parent="1">
          <mxGeometry x="870" y="-10" width="270" height="150" as="geometry" />
        </mxCell>
        <mxCell id="5L868VNpYR84aTYLt7mF-31" value="data binding&lt;br&gt;{{}}" style="text;html=1;strokeColor=none;fillColor=none;align=center;verticalAlign=middle;whiteSpace=wrap;rounded=0;" vertex="1" parent="1">
          <mxGeometry x="350" y="570" width="120" height="30" as="geometry" />
        </mxCell>
        <mxCell id="5L868VNpYR84aTYLt7mF-33" value="static data" style="text;html=1;strokeColor=#9673a6;fillColor=#e1d5e7;align=center;verticalAlign=middle;whiteSpace=wrap;rounded=0;" vertex="1" parent="1">
          <mxGeometry x="480" y="300" width="110" height="30" as="geometry" />
        </mxCell>
        <mxCell id="5L868VNpYR84aTYLt7mF-34" value="dynamic data" style="text;html=1;strokeColor=#B09500;fillColor=#e3c800;align=center;verticalAlign=middle;whiteSpace=wrap;rounded=0;fontColor=#000000;" vertex="1" parent="1">
          <mxGeometry x="480" y="330" width="110" height="30" as="geometry" />
        </mxCell>
        <mxCell id="5L868VNpYR84aTYLt7mF-36" value="getUserData()" style="text;html=1;strokeColor=none;fillColor=none;align=center;verticalAlign=middle;whiteSpace=wrap;rounded=0;" vertex="1" parent="1">
          <mxGeometry x="610" y="560" width="60" height="30" as="geometry" />
        </mxCell>
        <mxCell id="5L868VNpYR84aTYLt7mF-37" value="data &lt;br&gt;[user-1, user-2]" style="text;html=1;strokeColor=#d6b656;fillColor=#fff2cc;align=center;verticalAlign=middle;whiteSpace=wrap;rounded=0;" vertex="1" parent="1">
          <mxGeometry x="680" y="560" width="120" height="30" as="geometry" />
        </mxCell>
        <mxCell id="5L868VNpYR84aTYLt7mF-38" value="getArtData()" style="text;html=1;strokeColor=none;fillColor=none;align=center;verticalAlign=middle;whiteSpace=wrap;rounded=0;" vertex="1" parent="1">
          <mxGeometry x="610" y="520" width="60" height="30" as="geometry" />
        </mxCell>
        <mxCell id="5L868VNpYR84aTYLt7mF-39" value="" style="shape=image;html=1;verticalAlign=top;verticalLabelPosition=bottom;labelBackgroundColor=#ffffff;imageAspect=0;aspect=fixed;image=https://cdn4.iconfinder.com/data/icons/essential-app-1/16/dot-more-menu-hide-128.png" vertex="1" parent="1">
          <mxGeometry x="660" y="600" width="50" height="50" as="geometry" />
        </mxCell>
      </root>
    </mxGraphModel>
  </diagram>
</mxfile>
